<?xml version="1.0" encoding="UTF-8"?>
<!DOCTYPE svg PUBLIC "-//W3C//DTD SVG 1.1//EN" "http://www.w3.org/Graphics/SVG/1.1/DTD/svg11.dtd">
<!-- Creator: CorelDRAW 2020 (64-Bit) -->
<svg xmlns="http://www.w3.org/2000/svg" xml:space="preserve" width="190mm" height="50mm" version="1.1" shape-rendering="geometricPrecision" text-rendering="geometricPrecision" image-rendering="optimizeQuality" fill-rule="evenodd" clip-rule="evenodd"
viewBox="0 0 19000 5000"
 xmlns:xlink="http://www.w3.org/1999/xlink"
 xmlns:xodm="http://www.corel.com/coreldraw/odm/2003">
 <g id="Capa_x0020_1">
  <metadata id="CorelCorpID_0Corel-Layer"/>
  <path fill="white" fill-rule="nonzero" d="M2304.18 151.99c-510.03,0 -963.15,327.99 -1121.09,812.11 -327.89,67.5 -610.88,272.57 -776.84,562.95 -107.8,186.08 -159.79,392.32 -158.22,597.01l0 0.7c2.32,280.78 105.42,558.58 303.52,777.36 -105.8,317 -69.49,663.88 99.47,950.92 254.23,443.08 765.76,670.19 1266.33,564.5 221.72,249.93 540.43,392.42 874.75,391.08 510.02,0 963.16,-327.97 1121.1,-812.11 328.42,-67.82 611.06,-272.83 775.26,-562.93 257.37,-441.54 198.95,-996.63 -143.67,-1375.08l0 -1.57c105.74,-316.98 69.47,-664.1 -99.48,-952.47 -254.29,-441.54 -765.87,-668.68 -1264.82,-563.01 -222.73,-249.24 -541.82,-391.06 -876.31,-389.46zm0 302.79l-1.57 1.57c205.27,0 402.66,70.96 560.56,201.88 -6.32,3.13 -18.99,11.01 -28.43,15.76l-928.41 534.57c-47.39,26.82 -75.81,77.27 -75.81,132.48l0 1255.21 -399.47 -230.21 0 -1037.63c-0.18,-481.94 390.57,-872.94 873.13,-873.68l0 0.05zm1118.41 365.43c313.15,-0.6 602.7,166.21 758.99,437.24 101.04,176.63 138.91,383.2 104.17,583.46 -6.32,-4.75 -18.91,-11 -26.85,-15.75l-928.41 -536.2c-47.51,-26.83 -105.61,-26.83 -153.12,0l-1087.92 627.61 0 -460.48 898.41 -518.81c132.1,-76.49 282.02,-116.88 434.73,-117.12l0 0.05zm-2296.29 476.63l0 1102.28c0,55.21 28.42,104.1 75.81,132.48l1086.29 626.03 -401.09 231.8 -896.85 -517.27c-417.32,-241.54 -560.01,-774.95 -318.9,-1192.17 102.15,-176.83 263.02,-312.4 454.74,-383.2l0 0.05zm2081.04 272.79l898.41 517.25c418.45,241.28 560.51,774.29 318.93,1192.18l1.55 1.57c-102.6,176.62 -263.69,312.23 -454.74,381.65l0 -1102.35c0,-55.2 -28.42,-105.66 -75.8,-132.42l-1087.87 -627.67 399.52 -230.21zm-660.01 380.07l457.94 264.92 0 528.24 -457.94 264.92 -457.88 -264.92 0 -528.24 457.88 -264.92zm720 416.34l399.47 230.21 0 1036.07c0,482.54 -391.58,873.62 -873.13,873.62l0 -1.54c-203.71,0 -402.66,-70.99 -558.98,-201.84 6.32,-3.14 20.53,-11.08 28.42,-15.82l928.39 -534.57c47.41,-26.81 77.4,-77.27 75.78,-132.47l0.05 -1253.66zm-260.56 678.06l0 460.44 -898.41 517.24c-418.44,239.7 -952.12,97.77 -1193.71,-318.55l1.57 0c-102.61,-175.07 -138.98,-383.22 -104.23,-583.46 6.32,4.74 18.96,11 26.85,15.74l928.4 536.2c47.51,26.83 105.63,26.83 153.13,0l1086.4 -627.61z"/>
  <path fill="white" fill-rule="nonzero" d="M6603.82 3967.75c-228.13,0 -438.03,-53.5 -629.71,-160.51 -191.68,-107.01 -343.37,-256.35 -455.08,-448.03 -111.72,-191.67 -167.57,-407.46 -167.57,-647.35 0,-239.88 55.85,-455.08 167.57,-645.58 111.71,-190.5 263.4,-339.25 455.08,-446.26 191.68,-107.01 401.58,-160.52 629.71,-160.52 230.48,0 441.56,53.51 633.24,160.52 191.67,107.01 342.78,255.76 453.32,446.26 110.53,190.5 165.8,405.7 165.8,645.58 0,239.89 -55.27,455.68 -165.8,647.35 -110.54,191.68 -261.65,341.02 -453.32,448.03 -191.68,107.01 -402.76,160.51 -633.24,160.51zm0 -349.25c162.28,0 306.92,-37.04 433.92,-111.12 127,-74.08 226.36,-179.92 298.09,-317.5 71.74,-137.58 107.6,-296.92 107.6,-478.02 0,-181.09 -35.86,-339.84 -107.6,-476.25 -71.73,-136.4 -171.09,-241.06 -298.09,-313.97 -127,-72.91 -271.64,-109.36 -433.92,-109.36 -162.28,0 -306.92,36.45 -433.92,109.36 -127,72.91 -226.36,177.57 -298.09,313.97 -71.74,136.41 -107.6,295.16 -107.6,476.25 0,181.1 35.86,340.44 107.6,478.02 71.73,137.58 171.09,243.42 298.09,317.5 127,74.08 271.64,111.12 433.92,111.12zm2003.78 -1333.5c68.2,-89.37 161.1,-164.63 278.7,-225.77 117.59,-61.15 250.47,-91.73 398.63,-91.73 169.34,0 323.97,41.75 463.91,125.24 139.93,83.49 249.88,200.49 329.84,351.01 79.97,150.52 119.95,323.38 119.95,518.59 0,195.2 -39.98,369.83 -119.95,523.87 -79.96,154.05 -189.91,273.99 -329.84,359.84 -139.94,85.84 -294.57,128.76 -463.91,128.76 -148.16,0 -279.87,-29.99 -395.11,-89.96 -115.24,-59.97 -209.31,-134.64 -282.22,-224.01l0 1206.5 -402.17 0 0 -2868.09 402.17 0 0 285.75zm1181.81 677.34c0,-134.06 -27.64,-249.89 -82.91,-347.49 -55.26,-97.6 -128.17,-171.68 -218.72,-222.25 -90.54,-50.56 -187.56,-75.85 -291.04,-75.85 -101.13,0 -196.97,25.87 -287.51,77.61 -90.55,51.75 -163.46,127 -218.73,225.78 -55.27,98.78 -82.9,215.2 -82.9,349.25 0,134.06 27.63,251.06 82.9,351.02 55.27,99.95 128.18,175.8 218.73,227.54 90.54,51.74 186.38,77.61 287.51,77.61 103.48,0 200.5,-26.46 291.04,-79.38 90.55,-52.91 163.46,-129.94 218.72,-231.06 55.27,-101.13 82.91,-218.73 82.91,-352.78zm2543.52 -38.81c0,72.91 -4.7,138.76 -14.11,197.56l-1485.19 0c11.76,155.22 69.38,279.87 172.86,373.94 103.48,94.08 230.48,141.11 381,141.11 216.37,0 369.24,-90.54 458.61,-271.64l433.92 0c-58.8,178.74 -165.22,325.15 -319.27,439.21 -154.04,114.07 -345.13,171.1 -573.26,171.1 -185.8,0 -352.19,-41.75 -499.18,-125.24 -146.99,-83.49 -262.24,-201.08 -345.73,-352.77 -83.49,-151.7 -125.23,-327.5 -125.23,-527.41 0,-199.9 40.57,-375.71 121.71,-527.4 81.14,-151.69 195.2,-268.7 342.19,-351.01 146.99,-82.32 315.74,-123.48 506.24,-123.48 183.44,0 346.9,39.98 490.36,119.95 143.46,79.96 255.17,192.26 335.14,336.9 79.96,144.64 119.94,311.03 119.94,499.18zm-419.8 -127c-2.36,-148.17 -55.27,-266.93 -158.75,-356.3 -103.49,-89.37 -231.66,-134.06 -384.53,-134.06 -138.76,0 -257.53,44.1 -356.31,132.29 -98.78,88.2 -157.57,207.55 -176.39,358.07l1075.98 0zm1749.78 -829.03c152.87,0 289.86,31.75 410.98,95.25 121.12,63.5 215.79,157.58 283.99,282.23 68.2,124.64 102.3,275.16 102.3,451.55l0 1146.53 -398.63 0 0 -1086.56c0,-174.03 -43.51,-307.5 -130.53,-400.4 -87.02,-92.9 -205.79,-139.35 -356.31,-139.35 -150.52,0 -269.87,46.45 -358.07,139.35 -88.19,92.9 -132.29,226.37 -132.29,400.4l0 1086.56 -402.17 0 0 -1943.81 402.17 0 0 222.25c65.85,-79.96 149.93,-142.28 252.24,-186.97 102.3,-44.68 211.08,-67.03 326.32,-67.03zm3704.16 1474.62l-1026.58 0 -176.39 500.94 -419.81 0 878.42 -2455.33 465.67 0 878.42 2455.33 -423.34 0 -176.39 -500.94zm-112.89 -328.09l-398.63 -1139.47 -402.17 1139.47 800.8 0zm1449.92 -1622.78l0 2451.81 -402.17 0 0 -2451.81 402.17 0z"/>
 </g>
</svg>
